<svg width="65" height="44" viewBox="0 0 65 44" fill="none" xmlns="http://www.w3.org/2000/svg">
<path fill-rule="evenodd" clip-rule="evenodd" d="M42.9701 10.6706C42.9217 10.6706 42.8726 10.6657 42.8242 10.6567C38.7197 9.84211 34.3998 9.78848 30.2791 10.4973C30.0511 10.5371 29.8178 10.4681 29.6468 10.3128C29.4758 10.1572 29.3865 9.931 29.4041 9.70034C29.8381 4.1027 21.8356 2.2567 21.755 2.23907C21.4088 2.16181 21.1639 1.85315 21.168 1.49872C21.1721 1.14467 21.4231 0.840883 21.7711 0.771499C21.8634 0.753121 24.063 0.320312 27.0987 0.320312C35.5415 0.320312 41.4279 3.63689 43.6741 9.65909C43.769 9.91375 43.7191 10.1995 43.5424 10.4069C43.3977 10.5761 43.188 10.6702 42.9705 10.6702L42.9701 10.6706Z" fill="#008EB2"/>
<path fill-rule="evenodd" clip-rule="evenodd" d="M27.0998 43.763C24.0638 43.763 21.8622 43.3294 21.7707 43.3114C21.4234 43.2416 21.1721 42.9386 21.168 42.5842C21.1639 42.2294 21.4084 41.9211 21.7546 41.8438C21.8337 41.8262 29.6644 40.0076 29.4173 34.572C29.4068 34.3447 29.5002 34.126 29.6697 33.9756C29.84 33.8248 30.0699 33.7588 30.2926 33.7986C34.3859 34.4992 38.6668 34.4501 42.7398 33.6534C43.0072 33.5987 43.2844 33.6988 43.4599 33.9092C43.6351 34.1189 43.682 34.4084 43.5814 34.6635C41.2768 40.5315 35.4233 43.7633 27.0998 43.7633V43.763Z" fill="#008EB2"/>
<path fill-rule="evenodd" clip-rule="evenodd" d="M36.1233 35.7936C27.7191 35.7936 19.6 32.8378 13.1758 27.4566C15.5615 20.343 13.1758 16.8363 13.1758 16.8363C19.6 11.4558 27.7191 8.5 36.1233 8.5C46.9113 8.5 57.0148 13.301 63.8437 21.6725C64.0687 21.9486 64.0687 22.3443 63.8437 22.6203C57.0144 30.9922 46.9109 35.7936 36.1233 35.7936Z" fill="#21ABCD"/>
<path fill-rule="evenodd" clip-rule="evenodd" d="M40.1124 8.7207C40.6389 8.77921 41.1632 8.84935 41.6849 8.93111C38.0541 15.9607 37.6959 28.0201 41.005 35.4619C40.4893 35.5324 39.9713 35.5916 39.4508 35.6396C36.2306 27.9207 36.5662 16.0721 40.1127 8.7207H40.1124Z" fill="#008EB2"/>
<path fill-rule="evenodd" clip-rule="evenodd" d="M34.0329 35.7319C33.4572 35.6981 32.8833 35.6509 32.3121 35.5897C28.9884 28.0583 28.9547 16.3399 32.1745 8.71808C32.7412 8.65507 33.3105 8.60632 33.8817 8.57031C30.3806 15.9929 30.4159 28.4236 34.0329 35.7319Z" fill="#008EB2"/>
<path fill-rule="evenodd" clip-rule="evenodd" d="M26.9196 34.5905C26.2655 34.4165 25.6171 34.2237 24.975 34.0133C22.0211 27.2943 22.098 17.2542 24.8711 10.3157C25.4926 10.1098 26.12 9.9208 26.7527 9.74902C23.4793 16.6713 23.369 27.93 26.9012 34.553L26.92 34.5905H26.9196Z" fill="#008EB2"/>
<path fill-rule="evenodd" clip-rule="evenodd" d="M48.5695 10.7256C54.4664 12.9118 59.7442 16.6491 63.8423 21.673C64.0674 21.949 64.0674 22.3447 63.8423 22.6207C59.5814 27.8444 54.046 31.6774 47.8648 33.822C44.9881 30.7998 43.4043 26.8254 43.4043 22.6222C43.4043 18.1055 45.2863 13.7759 48.5695 10.7256Z" fill="#008EB2"/>
<path fill-rule="evenodd" clip-rule="evenodd" d="M52.1018 22.4656C50.6995 22.4656 49.5586 21.325 49.5586 19.9227C49.5586 18.5204 50.6991 17.3799 52.1018 17.3799C53.5034 17.3799 54.6447 18.5204 54.6447 19.9227C54.6447 21.325 53.5041 22.4656 52.1018 22.4656Z" fill="#21ABCD"/>
<path fill-rule="evenodd" clip-rule="evenodd" d="M0.134132 12.1497C5.81541 20.8392 5.81541 23.4552 0.134132 32.1448C-0.0166381 32.3754 -0.0290148 32.6698 0.101878 32.9125C0.233146 33.1548 0.486305 33.3059 0.761593 33.3059C7.13971 33.3059 11.6955 29.048 13.1743 27.4574C15.56 20.3438 13.1743 16.8371 13.1743 16.8371C11.6947 15.2465 7.13896 10.9893 0.761593 10.9893C0.486305 10.9893 0.232396 11.1404 0.101878 11.3823C-0.0286398 11.6246 -0.0166381 11.9194 0.134132 12.1497Z" fill="#008EB2"/>
<path fill-rule="evenodd" clip-rule="evenodd" d="M52.1029 18.3184C51.2181 18.3184 50.498 19.0381 50.498 19.9232C50.498 20.808 51.217 21.528 52.1029 21.528C52.9876 21.528 53.7066 20.8083 53.7066 19.9232C53.7066 19.0385 52.9876 18.3184 52.1029 18.3184Z" fill="#008EB2"/>
<path fill-rule="evenodd" clip-rule="evenodd" d="M52.6717 18.5059C52.3165 18.5059 52.0273 18.795 52.0273 19.1502C52.0273 19.5054 52.3161 19.7945 52.6717 19.7945C53.0272 19.7945 53.3156 19.5054 53.3156 19.1502C53.3156 18.795 53.0269 18.5059 52.6717 18.5059Z" fill="white"/>
</svg>
