<svg width="56" height="56" viewBox="0 0 56 56" fill="none" xmlns="http://www.w3.org/2000/svg">
<rect width="56" height="56" rx="28" fill="white"/>
<path d="M45.6377 32.8541L29.6824 24.5225L11.9534 24.9408C11.3884 25.2662 11.4921 25.9099 11.1596 25.9242C11.1417 25.9242 9.65774 26.7001 8.98191 26.6465C7.91274 26.5607 7.04739 26.5249 5.73148 26.5178C5.01274 26.5142 4.72668 27.4403 5.32026 27.848C10.1047 31.127 13.8343 35.7792 16.5519 41.0249C16.6127 41.1322 16.7665 41.2001 16.9417 41.2466H45.2122C45.3874 41.1751 45.5447 41.0642 45.5984 40.9927C46.4637 39.8556 47.3505 36.9949 48.1623 35.915C48.4626 35.511 48.4734 34.9603 48.1587 34.567C47.7403 34.052 46.664 33.6873 45.745 33.0651C44.8868 32.4823 45.6377 32.8541 45.6377 32.8541Z" fill="#006CA2"/>
<path d="M47.0141 33.4689L45.759 32.8574C45.7733 31.9384 45.8555 30.5939 45.8234 29.5498C45.7983 28.8489 43.2559 27.4543 42.5837 26.9609C41.35 26.0562 37.9744 23.5853 37.9744 23.5853C37.9744 23.5853 37.8564 22.0262 37.7384 20.7783C37.6991 20.3706 36.8659 20.0917 36.3582 20.1131C36.0363 20.1275 35.9577 20.4028 35.9577 20.4028L35.7395 22.2801C35.7395 22.2801 32.1959 20.0309 30.5403 18.9546C28.4663 17.6029 27.4829 17.349 24.987 17.3025C24.9834 17.2525 24.9799 17.1595 24.9799 17.0344C24.9799 16.9271 24.9799 16.7948 24.987 16.6553C24.987 16.6267 24.9906 16.5981 24.9906 16.5659C25.0156 16.144 24.5436 15.8186 24.5436 15.8186C24.5436 15.8186 21.9511 14.2238 20.9821 14.0736C20.0095 13.9234 19.9129 15.1213 19.9129 15.1213V17.3097C18.5505 17.3347 17.1917 17.3812 15.8401 17.4813C15.2786 17.5207 14.3346 17.6136 14.3346 18.7651C14.3346 19.1298 14.424 20.9463 14.4312 21.3468C14.4348 21.5506 14.635 21.7652 14.8853 21.9261C14.66 22.0584 14.4526 22.1943 14.1916 22.3874C13.6874 22.7557 9.47151 26.378 8.98877 26.6533C8.98877 26.6533 10.5764 26.6176 12.915 26.7105C14.4741 26.7749 22.6806 26.9644 26.403 27.1146C28.2518 27.1897 29.8037 27.9156 29.8037 27.9156L48.2835 34.7562C48.2728 34.749 48.3086 34.2126 47.0141 33.4689Z" fill="#78A3AD"/>
<path d="M49.1525 42.337H7.50128C7.03642 42.337 6.65381 41.9544 6.65381 41.4896C6.65381 41.0247 7.03642 40.6421 7.50128 40.6421H49.1525C49.6174 40.6421 50 41.0247 50 41.4896C50 41.9544 49.621 42.337 49.1525 42.337Z" fill="#40C0E7"/>
<path d="M24.2361 24.5076C24.7761 23.8103 25.1801 23.1989 25.1801 23.1989C25.1801 23.1989 25.5163 22.7769 24.4364 22.7769C23.5281 22.7769 16.9843 22.7912 16.9843 22.7912C16.9843 22.7912 16.5767 22.7018 15.933 23.0916C15.933 23.0916 15.0999 23.7567 14.4348 24.1965C14.0986 24.4218 13.9485 24.9117 14.424 24.9117C16.6053 24.9117 21.7187 24.8795 23.1205 24.9117C23.6962 24.926 23.9679 24.8581 24.2361 24.5076ZM16.1226 20.9926H18.2645C18.5112 20.9926 18.7115 20.7923 18.7115 20.5456V18.8078C18.7115 18.561 18.5112 18.3608 18.2645 18.3608H16.1226C15.8758 18.3608 15.6756 18.561 15.6756 18.8078V20.5456C15.6756 20.7923 15.8758 20.9926 16.1226 20.9926ZM19.9308 20.5242C19.9308 20.7709 20.1311 20.9711 20.3778 20.9711H22.5197C22.7664 20.9711 22.9667 20.7709 22.9667 20.5242V18.7863C22.9667 18.5396 22.7664 18.3393 22.5197 18.3393H20.3778C20.1311 18.3393 19.9308 18.5396 19.9308 18.7863V20.5242ZM24.1896 20.5027C24.1896 20.7494 24.3899 20.9497 24.6366 20.9497H26.7785C27.0253 20.9497 27.2255 20.7494 27.2255 20.5027V18.7648C27.2255 18.5181 27.0253 18.3179 26.7785 18.3179H24.6366C24.3899 18.3179 24.1896 18.5181 24.1896 18.7648V20.5027ZM41.6361 29.3529L29.0599 22.9557L29.0527 24.2788L41.6325 30.1503L41.6361 29.3529ZM41.6754 30.7761L29.0384 25.1727V26.4708L41.6754 31.2767V30.7761ZM41.5574 28.7271C41.704 28.8129 41.89 28.7092 41.89 28.5376V27.5685C41.89 27.4934 41.8542 27.4255 41.7898 27.3826L41.4609 27.168C41.4276 27.1464 41.389 27.1342 41.3493 27.1327C41.3097 27.1312 41.2703 27.1405 41.2355 27.1596C41.2006 27.1786 41.1716 27.2068 41.1515 27.241C41.1314 27.2752 41.1209 27.3143 41.1212 27.354V28.3445C41.1212 28.4232 41.1641 28.4947 41.2284 28.534L41.5574 28.7271ZM34.8778 22.8627C34.8445 22.8411 34.8059 22.8289 34.7662 22.8274C34.7266 22.8259 34.6872 22.8352 34.6524 22.8543C34.6176 22.8733 34.5885 22.9015 34.5684 22.9357C34.5483 22.9699 34.5378 23.009 34.5381 23.0487V24.4826C34.5381 24.5613 34.581 24.6328 34.6453 24.6721L35.7002 25.2907C35.8468 25.3766 36.0328 25.2729 36.0328 25.1012V23.7388C36.0328 23.6637 35.997 23.5958 35.9326 23.5529L34.8778 22.8627ZM39.0543 27.1323C39.0543 27.211 39.0972 27.2825 39.1616 27.3218L39.8911 27.7509C40.0377 27.8367 40.2236 27.733 40.2236 27.5614V26.4815C40.2236 26.4064 40.1879 26.3385 40.1235 26.2955L39.394 25.82C39.3607 25.7983 39.3222 25.7861 39.2825 25.7846C39.2428 25.7831 39.2035 25.7924 39.1687 25.8115C39.1338 25.8305 39.1048 25.8587 39.0847 25.8929C39.0645 25.9271 39.0541 25.9662 39.0543 26.0059V27.1323ZM36.9267 24.6078V25.8807C36.9267 25.9594 36.9696 26.0309 37.034 26.0703L37.8278 26.5351C37.9744 26.6209 38.1604 26.5172 38.1604 26.3456V25.1262C38.1604 25.0512 38.1246 24.9832 38.0603 24.9403L37.2664 24.4218C37.233 24.4006 37.1946 24.3886 37.155 24.3873C37.1155 24.386 37.0763 24.3954 37.0416 24.4144C37.0069 24.4334 36.9779 24.4613 36.9577 24.4953C36.9375 24.5294 36.9268 24.5682 36.9267 24.6078ZM32.1673 23.088C32.1673 23.1667 32.2102 23.2382 32.2746 23.2775L33.308 23.8854C33.4546 23.9713 33.6405 23.8676 33.6405 23.6959V22.1726C33.6405 22.0975 33.6048 22.0296 33.5404 21.9867L32.507 21.3108C32.4737 21.2892 32.4352 21.277 32.3955 21.2755C32.3558 21.274 32.3164 21.2833 32.2816 21.3024C32.2468 21.3214 32.2178 21.3496 32.1976 21.3838C32.1775 21.418 32.167 21.4571 32.1673 21.4968V23.088ZM29.1064 21.2894C29.1064 21.3681 29.1493 21.4396 29.2137 21.4789L30.9408 22.4909C31.0874 22.5767 31.2733 22.473 31.2733 22.3013V20.6171C31.2733 20.542 31.2376 20.4741 31.1732 20.4312L29.4461 19.3012C29.4128 19.2796 29.3742 19.2674 29.3346 19.2659C29.2949 19.2644 29.2555 19.2737 29.2207 19.2927C29.1859 19.3118 29.1568 19.3399 29.1367 19.3742C29.1166 19.4084 29.1061 19.4475 29.1064 19.4872V21.2894Z" fill="white"/>
<path d="M24.9904 17.2884C24.9904 17.2884 24.9904 17.2705 24.9869 17.2419C24.9833 17.1918 24.9797 17.0988 24.9797 16.9737C24.1608 16.5946 22.2013 15.7221 21.7257 15.6721C21.1643 15.6113 20.088 15.6506 19.9092 15.6578V17.3062L24.9904 17.2884Z" fill="#ED6C30"/>
<path d="M21.7618 15.3289C22.3196 15.3861 24.2863 16.273 24.9872 16.5948C24.9872 16.5662 24.9908 16.5376 24.9908 16.5054C25.0158 16.0834 24.5438 15.758 24.5438 15.758C24.5438 15.758 21.9513 14.1632 20.9823 14.013C20.0096 13.8628 19.9131 15.0607 19.9131 15.0607V15.3111C19.9989 15.3075 21.136 15.261 21.7618 15.3289Z" fill="#ED6C30"/>
<path d="M21.7257 15.6724C22.2049 15.7225 24.1608 16.595 24.9797 16.974C24.9797 16.8667 24.9797 16.7344 24.9869 16.595C24.286 16.2732 22.3193 15.3864 21.7615 15.3291C21.1357 15.2648 20.0022 15.3077 19.9092 15.3113V15.6581C20.088 15.651 21.1607 15.6116 21.7257 15.6724Z" fill="white"/>
<path d="M29.6751 31.3379C28.1768 30.8194 25.638 30.7514 25.613 30.7514L11.5993 30.4082C11.1058 30.3974 9.46095 28.6632 9.96871 28.6739L25.6594 28.9635C25.7739 28.9671 28.5058 29.0386 30.2615 29.6465C34.0376 30.9553 46.6782 35.4215 46.8069 35.4608C47.2789 35.6038 47.4255 35.9757 47.379 36.1688C47.3325 36.3619 47.0357 36.6587 46.4708 36.5192C45.9058 36.3834 33.4869 32.6573 29.6751 31.3379ZM18.2646 38.7792C17.9321 38.7792 17.6138 38.5932 17.4601 38.275C15.808 34.8601 13.8127 33.0257 13.7913 33.0078C13.6158 32.8485 13.5109 32.626 13.4995 32.3892C13.4881 32.1525 13.5712 31.921 13.7305 31.7455C14.063 31.3808 14.6244 31.3522 14.9928 31.6811C15.0857 31.7634 16.6841 33.6264 18.5006 37.3774C18.7152 37.8208 18.9762 38.5396 18.5328 38.7541C18.4005 38.8113 18.3934 38.7792 18.2646 38.7792Z" fill="#40C0E7"/>
</svg>
