<svg width="65" height="65" viewBox="0 0 65 65" fill="none" xmlns="http://www.w3.org/2000/svg">
<path d="M63.0997 32.1718C63.0997 35.2319 62.6573 38.1872 61.8337 40.9803C59.9034 47.5237 55.8769 53.1701 50.5313 57.1395C45.36 60.9809 38.9554 63.2527 32.0185 63.2527C14.8534 63.2527 0.9375 49.3368 0.9375 32.1717C0.9375 23.5823 4.4222 15.807 10.0551 10.181C15.6784 4.56477 23.4429 1.09082 32.0186 1.09082C38.4559 1.09082 44.4358 3.04824 49.3961 6.39961C57.6642 11.9848 63.0997 21.4439 63.0997 32.1718Z" fill="#5F9EEB"/>
<path d="M63.0994 32.1718C63.0994 35.2324 62.6567 38.1867 61.8337 40.9808C59.9038 47.5235 55.8764 53.1706 50.5307 57.1392C45.3601 60.9815 38.9551 63.2528 32.0184 63.2528C31.318 63.2528 30.6226 63.2291 29.9334 63.1841C36.0671 62.7776 41.713 60.5938 46.3607 57.1392C51.7064 53.1706 55.7326 47.5235 57.6637 40.9808C58.4867 38.1867 58.9295 35.2324 58.9295 32.1718C58.9295 21.4442 53.4937 11.9848 45.2263 6.40023C40.8049 3.4122 35.573 1.53233 29.9297 1.15961C30.6201 1.11458 31.3168 1.09082 32.0184 1.09082C38.456 1.09082 44.4358 3.04824 49.3963 6.40023C57.6637 11.9848 63.0994 21.4442 63.0994 32.1718Z" fill="#3A82D0"/>
<path d="M63.1 32.172C63.1 35.2326 62.6572 38.1868 61.8342 40.981L58.456 37.6027L56.3028 35.4496C56.1201 35.2668 55.8852 35.1453 55.6305 35.1014L49.2854 34.0091C49.0307 33.9653 48.7958 33.8436 48.6131 33.6609L47.7218 32.7696C47.4873 32.5351 47.3555 32.2169 47.3555 31.8852V23.3143C47.3555 22.9826 47.4873 22.6645 47.7218 22.4299L49.0303 21.1214C49.2649 20.8869 49.3967 20.5687 49.3967 20.237V6.40039C57.6642 11.985 63.1 21.4444 63.1 32.172Z" fill="#A0D37D"/>
<path d="M63.0996 32.172C63.0996 35.2326 62.6569 38.1868 61.8339 40.981L58.4556 37.6027C58.7671 35.8392 58.9297 34.0256 58.9297 32.172C58.9297 23.373 55.2737 15.4283 49.3965 9.7749V6.40039C57.6639 11.985 63.0996 21.4444 63.0996 32.172Z" fill="#84B75B"/>
<path d="M50.5312 51.0387V57.1395C45.3614 60.9798 38.9589 63.2515 32.0243 63.2528C15.1115 63.2559 1.21959 49.605 0.9418 32.6944C0.797214 23.8982 4.30818 15.9211 10.055 10.1812L12.4489 16.8176C12.6435 17.3573 13.1557 17.7169 13.7294 17.7169H23.0313C23.3923 17.7169 23.7386 17.8604 23.9939 18.1156L28.1092 22.231C28.3645 22.4862 28.508 22.8324 28.508 23.1935V38.9751C28.508 39.336 28.6514 39.6824 28.9067 39.9376L32.2134 43.2443C32.4687 43.4996 32.8149 43.6431 33.176 43.6431H43.1356C43.4965 43.6431 43.8429 43.7865 44.0981 44.0418L50.1327 50.0764C50.3878 50.3316 50.5312 50.6778 50.5312 51.0387Z" fill="#A0D37D"/>
<path d="M50.5305 53.4209V57.1394C45.3611 60.9804 38.9586 63.2518 32.0244 63.253C31.324 63.253 30.6286 63.2292 29.9395 63.1842C36.0706 62.7765 41.714 60.5927 46.3605 57.1394C47.8601 56.0262 49.256 54.7805 50.5305 53.4209Z" fill="#84B75B"/>
<path d="M39.5868 28.603C39.5868 33.0736 32.9562 45.0456 30.5575 49.2304C30.1796 49.8898 29.2294 49.8898 28.8515 49.2304C26.4528 45.0456 19.8223 33.0735 19.8223 28.603C19.8223 23.1451 24.2468 18.7207 29.7045 18.7207C35.1623 18.7207 39.5868 23.1452 39.5868 28.603Z" fill="#EB5777"/>
<path d="M29.7035 32.1204C32.2333 32.1204 34.284 30.0697 34.284 27.54C34.284 25.0102 32.2333 22.9595 29.7035 22.9595C27.1738 22.9595 25.123 25.0102 25.123 27.54C25.123 30.0697 27.1738 32.1204 29.7035 32.1204Z" fill="#EBEEF2"/>
<path d="M61.5158 19.6948C61.3138 19.2179 60.7633 18.9947 60.2862 19.1969C59.8091 19.3989 59.5861 19.9495 59.7882 20.4265C61.3633 24.1461 62.162 28.0979 62.162 32.1719C62.162 34.5534 61.8839 36.8973 61.3458 39.1654L56.9662 34.7858C56.6447 34.4644 56.2379 34.2536 55.7897 34.1765L49.4448 33.0844C49.3808 33.0734 49.3226 33.0434 49.2767 32.9974L48.3852 32.1059C48.327 32.0477 48.2936 31.9672 48.2936 31.8847V23.3144C48.2936 23.2321 48.327 23.1514 48.3852 23.0932L49.6936 21.7848C50.107 21.3713 50.3346 20.8218 50.3346 20.2372V8.23289C53.3578 10.5512 55.9357 13.4325 57.8995 16.7129C58.1655 17.1575 58.7416 17.3023 59.1863 17.0359C59.6308 16.7699 59.7754 16.1938 59.5093 15.7492C56.7155 11.0825 52.7523 7.17476 48.048 4.44864C43.1982 1.63834 37.6556 0.152832 32.0191 0.152832C23.4665 0.152832 15.4258 3.48344 9.37809 9.53092C3.33048 15.5786 0 23.6193 0 32.1719C0 37.3211 1.25187 42.4394 3.62041 46.9735C5.91202 51.3605 9.24788 55.217 13.2673 58.126C13.4335 58.2462 13.6259 58.3042 13.8165 58.3042C14.1072 58.3041 14.3937 58.1695 14.5772 57.916C14.881 57.4964 14.7869 56.9098 14.3673 56.606C10.5822 53.8667 7.44106 50.2353 5.2834 46.1048C3.05432 41.8378 1.87612 37.0199 1.87612 32.1719C1.87612 24.6138 4.63939 17.4805 9.68752 11.9252L11.5673 17.1359C11.895 18.0446 12.7642 18.6551 13.7301 18.6551H23.032C23.145 18.6551 23.2512 18.6991 23.3311 18.7791L23.9792 19.4271C20.9228 21.3415 18.8858 24.7387 18.8858 28.6035C18.8858 33.2289 25.2871 44.896 28.0393 49.6973C28.386 50.3023 29.0092 50.6635 29.7062 50.6635C30.4032 50.6635 31.0264 50.3023 31.3731 49.6973C32.116 48.4012 33.1251 46.6043 34.2021 44.581H43.1358C43.2489 44.581 43.3551 44.6251 43.4351 44.705L49.4698 50.7397C49.5498 50.8196 49.5938 50.9258 49.5938 51.0389V56.6661C44.9161 60.0329 39.3654 61.9919 33.5156 62.2778C32.9982 62.3031 32.5992 62.7431 32.6244 63.2605C32.6489 63.7625 33.0636 64.1528 33.5606 64.1528C33.576 64.1528 33.5916 64.1525 33.6071 64.1517C41.8223 63.7502 49.4829 60.2455 55.1775 54.283C60.8914 48.3003 64.0381 40.4477 64.0381 32.1719C64.0381 27.8451 63.1895 23.6472 61.5158 19.6948ZM29.7453 48.7644C29.7386 48.7762 29.7322 48.7874 29.7062 48.7874C29.6802 48.7874 29.6738 48.7762 29.667 48.7644C27.5781 45.1199 20.762 32.8952 20.762 28.6035C20.762 23.6716 24.7744 19.6592 29.7062 19.6592C34.638 19.6592 38.6504 23.6716 38.6504 28.6035C38.6504 32.8952 31.8343 45.1199 29.7453 48.7644ZM53.8207 52.9871C53.0724 53.7706 52.2866 54.5073 51.4699 55.1991V51.0389C51.4699 50.4248 51.2308 49.8474 50.7965 49.413L44.7618 43.3783C44.3275 42.9441 43.7502 42.7049 43.1359 42.7049H35.1853C37.8304 37.5729 40.5265 31.6054 40.5265 28.6035C40.5265 22.6371 35.6725 17.7831 29.7062 17.7831C28.3072 17.7831 26.9694 18.05 25.741 18.5355L24.6578 17.4524C24.2236 17.0181 23.6462 16.779 23.032 16.779H13.7301C13.5523 16.779 13.3924 16.6667 13.3321 16.4994L11.1428 10.4303C16.7834 5.00835 24.1719 2.02895 32.0191 2.02895C37.3256 2.02895 42.5431 3.42703 47.1073 6.07198C47.566 6.33777 48.0152 6.61831 48.4585 6.90761V20.2372C48.4585 20.3207 48.426 20.3993 48.3669 20.4583L47.0587 21.7666C46.6453 22.1801 46.4176 22.7297 46.4176 23.3144V31.8847C46.4176 32.4695 46.6453 33.019 47.0587 33.4325L47.9502 34.3241C48.2716 34.6455 48.6785 34.8563 49.1266 34.9334L55.4715 36.0255C55.5356 36.0365 55.5937 36.0665 55.6396 36.1125L60.7727 41.2456C59.403 45.5968 57.0472 49.6088 53.8207 52.9871Z" fill="black"/>
<path d="M29.5531 62.2148C25.4161 61.8794 21.4668 60.7179 17.8146 58.7627C17.3578 58.518 16.7895 58.6902 16.5448 59.1469C16.3003 59.6035 16.4723 60.1721 16.9291 60.4166C20.8098 62.4942 25.0061 63.7285 29.4015 64.0847C29.4274 64.0868 29.4529 64.0877 29.4783 64.0877C29.962 64.0877 30.3725 63.716 30.4122 63.2254C30.4541 62.7093 30.0694 62.2567 29.5531 62.2148Z" fill="black"/>
<path d="M29.706 22.022C26.6631 22.022 24.1875 24.4976 24.1875 27.5405C24.1875 30.5834 26.6631 33.059 29.706 33.059C32.749 33.059 35.2246 30.5834 35.2246 27.5405C35.2246 24.4976 32.749 22.022 29.706 22.022ZM29.706 31.1831C27.6976 31.1831 26.0636 29.5491 26.0636 27.5406C26.0636 25.5322 27.6976 23.8981 29.706 23.8981C31.7145 23.8981 33.3485 25.5321 33.3485 27.5405C33.3485 29.549 31.7145 31.1831 29.706 31.1831Z" fill="black"/>
<path d="M12.9381 43.5856H15.1876C15.7057 43.5856 16.1257 43.1657 16.1257 42.6475C16.1257 42.1293 15.7057 41.7095 15.1876 41.7095H12.9381C12.42 41.7095 12 42.1293 12 42.6475C12 43.1657 12.42 43.5856 12.9381 43.5856Z" fill="black"/>
<path d="M12.9381 47.0612H20.6743C21.1924 47.0612 21.6124 46.6413 21.6124 46.1231C21.6124 45.6049 21.1924 45.1851 20.6743 45.1851H12.9381C12.42 45.1851 12 45.6049 12 46.1231C12 46.6413 12.42 47.0612 12.9381 47.0612Z" fill="black"/>
<path d="M12.9381 49.6989H20.6743C21.1924 49.6989 21.6124 49.279 21.6124 48.7608C21.6124 48.2426 21.1924 47.8228 20.6743 47.8228H12.9381C12.42 47.8228 12 48.2426 12 48.7608C12 49.279 12.42 49.6989 12.9381 49.6989Z" fill="black"/>
</svg>
 