<svg width="64" height="64" viewBox="0 0 64 64" fill="none" xmlns="http://www.w3.org/2000/svg">
<path d="M19.04 24.68C19.85 25.66 20.56 26.5 21.99 26.5C23.42 26.5 24.12 25.66 24.94 24.68C25.79 23.66 26.76 22.5 28.66 22.5C29.45 22.5 30.08 22.71 30.6 23.02L32 16L22 11L12 16L13.4 23.01C13.92 22.71 14.54 22.5 15.33 22.5C17.23 22.5 18.2 23.66 19.05 24.68H19.04Z" fill="#A3AAB1"/>
<path d="M23 15H21V27H23V15Z" fill="#75777A"/>
<path d="M59 43L57.49 50.56L57.06 52.72C56.56 52.25 56.07 52 55.33 52C54.18 52 53.63 52.59 52.76 53.64C51.88 54.69 50.79 56 48.65 56C46.51 56 45.43 54.69 44.55 53.64C43.68 52.59 43.13 52 41.99 52C41.53 52 41.17 52.09 40.85 52.27L40.45 50.27L39 43L49 38L59 43Z" fill="#A3AAB1"/>
<path d="M50 41H48V54.98H50V41Z" fill="#75777A"/>
<path d="M20 7V3H24V7" fill="#FCD192"/>
<path d="M47 34V30H51V34" fill="#FCD192"/>
<path d="M42 41.5V34H56V41.5" fill="#AADFF1"/>
<path d="M58.27 47L49 42L39.73 47L38 42.63L49 38L60 42.63L58.27 47Z" fill="#EF9596"/>
<path d="M15 14.5V7H29V14.5" fill="#AADFF1"/>
<path d="M31.27 20L22 15L12.73 20L11 15.63L22 11L33 15.63L31.27 20Z" fill="#EF9596"/>
<path d="M35 41H3V47H35V41Z" fill="#75777A"/>
<path d="M23 47H19V57H23V47Z" fill="#A3AAB1"/>
<path d="M9 47H5V57H9V47Z" fill="#A3AAB1"/>
<path d="M49 18H42L44 21L42 24H49" fill="#EF9596"/>
<path d="M50.0009 30.0005H48.0009V25.0005H42.0009C41.6309 25.0005 41.2909 24.8005 41.1209 24.4705C40.9509 24.1405 40.9708 23.7505 41.1708 23.4405L42.8009 20.9905L41.1708 18.5405C40.9708 18.2305 40.9509 17.8405 41.1209 17.5105C41.2909 17.1805 41.6309 16.9805 42.0009 16.9805H49.0009C49.5509 16.9805 50.0009 17.4305 50.0009 17.9805V29.9805V30.0005ZM43.8709 23.0005H48.0009V19.0005H43.8709L44.8309 20.4505C45.0509 20.7905 45.0509 21.2205 44.8309 21.5605L43.8709 23.0105V23.0005Z" fill="#A3AAB1"/>
<path d="M2 57C5.33 57 5.33 61 8.66 61C11.99 61 11.99 57 15.32 57C18.65 57 18.65 61 21.98 61C25.31 61 25.31 57 28.64 57C31.97 57 31.97 61 35.31 61C38.65 61 38.64 57 41.97 57C45.3 57 45.3 61 48.64 61C51.98 61 51.98 57 55.31 57C58.64 57 58.65 61 61.98 61V55C58.64 55 58.64 51 55.31 51C51.98 51 51.97 55 48.64 55C45.31 55 45.31 51 41.97 51C38.63 51 38.64 55 35.31 55C31.98 55 31.98 51 28.64 51C25.3 51 25.31 55 21.98 55C18.65 55 18.65 51 15.32 51C11.99 51 11.99 55 8.66 55C5.33 55 5.33 51 2 51" fill="#AADFF1"/>
<path d="M62 54V56C59.86 56 58.77 54.69 57.9 53.64C57.59 53.27 57.33 52.96 57.06 52.72C56.56 52.25 56.07 52 55.33 52C54.18 52 53.63 52.59 52.76 53.64C51.88 54.69 50.79 56 48.65 56C46.51 56 45.43 54.69 44.55 53.64C43.68 52.59 43.13 52 41.99 52C41.53 52 41.17 52.09 40.85 52.27C40.35 52.54 39.95 53.01 39.42 53.64C38.55 54.69 37.46 56 35.32 56C33.18 56 32.1 54.69 31.22 53.64C30.35 52.59 29.8 52 28.66 52C27.52 52 26.96 52.59 26.09 53.64C25.22 54.69 24.13 56 21.99 56C19.85 56 18.77 54.69 17.89 53.64C17.02 52.59 16.47 52 15.33 52C14.19 52 13.63 52.59 12.76 53.64C11.89 54.69 10.8 56 8.66 56C6.52 56 5.44 54.69 4.56 53.64C3.69 52.59 3.14 52 2 52V50C4.13 50 5.22 51.31 6.1 52.36C6.97 53.41 7.52 54 8.66 54C9.8 54 10.35 53.41 11.23 52.36C12.1 51.31 13.19 50 15.33 50C17.47 50 18.55 51.31 19.43 52.36C20.3 53.41 20.85 54 21.99 54C23.13 54 23.68 53.41 24.55 52.36C25.43 51.31 26.52 50 28.66 50C30.8 50 31.88 51.31 32.76 52.36C33.63 53.41 34.18 54 35.32 54C36.46 54 37.01 53.41 37.88 52.36C38.52 51.6 39.27 50.7 40.45 50.27C40.89 50.1 41.4 50 41.99 50C44.12 50 45.21 51.31 46.09 52.36C46.96 53.41 47.51 54 48.65 54C49.79 54 50.35 53.41 51.22 52.36C52.1 51.31 53.19 50 55.33 50C56.21 50 56.91 50.22 57.49 50.56C58.32 51.04 58.91 51.74 59.43 52.36C60.3 53.41 60.86 54 62 54Z" fill="#D6EFF8"/>
<path d="M22 42C22 41.4477 21.5523 41 21 41C20.4477 41 20 41.4477 20 42C20 42.5523 20.4477 43 21 43C21.5523 43 22 42.5523 22 42Z" fill="#A3AAB1"/>
<path d="M35.3198 28C33.1898 28 32.0998 26.69 31.2198 25.64C30.3498 24.59 29.7998 24 28.6498 24C27.4998 24 26.9598 24.59 26.0898 25.64C25.2098 26.69 24.1198 28 21.9898 28C19.8598 28 18.7598 26.69 17.8898 25.64C17.0198 24.59 16.4698 24 15.3298 24C14.1898 24 13.6398 24.59 12.7698 25.64C11.8898 26.69 10.7998 28 8.66977 28C6.53977 28 5.44977 26.69 4.56977 25.64C3.69977 24.59 3.14977 24 2.00977 24V22C4.13977 22 5.22977 23.31 6.10977 24.36C6.97977 25.41 7.52977 26 8.66977 26C9.80977 26 10.3598 25.41 11.2298 24.36C12.1098 23.31 13.1998 22 15.3298 22C17.4598 22 18.5498 23.31 19.4298 24.36C20.2998 25.41 20.8498 26 21.9898 26C23.1298 26 23.6798 25.41 24.5498 24.36C25.4298 23.31 26.5198 22 28.6498 22C30.7798 22 31.8798 23.31 32.7498 24.36C33.6198 25.41 34.1698 26 35.3098 26V28H35.3198Z" fill="#D6EFF8"/>
</svg>
  