<svg width="64" height="64" viewBox="0 0 64 64" fill="none" xmlns="http://www.w3.org/2000/svg">
<path d="M61 31H31V61H61V31Z" fill="#E59730"/>
<path d="M37 31H61V55H53C48.7565 55 44.6869 53.3143 41.6863 50.3137C38.6857 47.3131 37 43.2435 37 39V31Z" fill="#FCBC04"/>
<path d="M52 31H42V41H52V31Z" fill="#F9E109"/>
<path d="M43 31V11H3V61H31V31H43Z" fill="#57B7EB"/>
<path d="M27 36V46C27.0016 46.7362 26.8 47.4586 26.4174 48.0876C26.0347 48.7165 25.4859 49.2277 24.8314 49.5648C24.1769 49.9019 23.4421 50.0518 22.7078 49.998C21.9736 49.9442 21.2684 49.6888 20.67 49.26C17.6683 47.0257 15.2306 44.1206 13.5516 40.7764C11.8726 37.4323 10.9988 33.7419 11 30V11H3V61H31V31L27 36Z" fill="#4891D3"/>
<path d="M34 7H12V11H34V7Z" fill="#A1D51C"/>
<path d="M14 21H8V27H14V21Z" fill="#C4F236"/>
<path d="M14 32H8V38H14V32Z" fill="#C4F236"/>
<path d="M14 44H8V50H14V44Z" fill="#A1D51C"/>
<path d="M11 21H8V27H11V21Z" fill="#A1D51C"/>
<path d="M8 38H12.38C11.6933 36.0639 11.2597 34.0472 11.09 32H8V38Z" fill="#A1D51C"/>
<path d="M14 7H34V9H16C15.4696 9 14.9609 8.78929 14.5858 8.41421C14.2107 8.03914 14 7.53043 14 7Z" fill="#C4F236"/>
<path d="M61 30H31C30.7348 30 30.4804 30.1054 30.2929 30.2929C30.1054 30.4804 30 30.7348 30 31V52.25C30 52.5152 30.1054 52.7696 30.2929 52.9571C30.4804 53.1446 30.7348 53.25 31 53.25C31.2652 53.25 31.5196 53.1446 31.7071 52.9571C31.8946 52.7696 32 52.5152 32 52.25V32H41V41C41 41.2652 41.1054 41.5196 41.2929 41.7071C41.4804 41.8946 41.7348 42 42 42H52C52.2652 42 52.5196 41.8946 52.7071 41.7071C52.8946 41.5196 53 41.2652 53 41V32H60V60H32V57C32 56.7348 31.8946 56.4804 31.7071 56.2929C31.5196 56.1054 31.2652 56 31 56C30.7348 56 30.4804 56.1054 30.2929 56.2929C30.1054 56.4804 30 56.7348 30 57V61C30 61.2652 30.1054 61.5196 30.2929 61.7071C30.4804 61.8946 30.7348 62 31 62H61C61.2652 62 61.5196 61.8946 61.7071 61.7071C61.8946 61.5196 62 61.2652 62 61V31C62 30.7348 61.8946 30.4804 61.7071 30.2929C61.5196 30.1054 61.2652 30 61 30ZM51 40H43V32H51V40Z" fill="#39519D"/>
<path d="M45.3205 51.9995C45.85 51.9973 46.3571 51.7851 46.7305 51.4095L51.0005 47.1695C51.1867 46.9821 51.2913 46.7288 51.2913 46.4646C51.2913 46.2004 51.1867 45.9469 51.0005 45.7595C50.8131 45.5732 50.5597 45.4688 50.2955 45.4688C50.0313 45.4688 49.7778 45.5732 49.5905 45.7595L45.3205 49.9995L43.9005 48.5896C43.7092 48.4258 43.4631 48.3401 43.2114 48.3498C42.9597 48.3595 42.721 48.4638 42.5429 48.6419C42.3648 48.82 42.2605 49.0589 42.2508 49.3105C42.241 49.5622 42.3266 49.8082 42.4905 49.9995L43.9005 51.4095C44.0865 51.5967 44.3078 51.7453 44.5515 51.8465C44.7952 51.9478 45.0566 51.9997 45.3205 51.9995Z" fill="#39519D"/>
<path d="M40.7305 55C40.7305 55.2652 40.8358 55.5196 41.0234 55.7071C41.2109 55.8946 41.4653 56 41.7305 56H49.7305C49.9957 56 50.2501 55.8946 50.4376 55.7071C50.6251 55.5196 50.7305 55.2652 50.7305 55C50.7305 54.7348 50.6251 54.4804 50.4376 54.2929C50.2501 54.1054 49.9957 54 49.7305 54H41.7305C41.4653 54 41.2109 54.1054 41.0234 54.2929C40.8358 54.4804 40.7305 54.7348 40.7305 55Z" fill="#39519D"/>
<path d="M26 60.0001H4V12.0001H14V13.0001C14 13.7958 14.3161 14.5588 14.8787 15.1214C15.4413 15.684 16.2044 16.0001 17 16.0001H29C29.7956 16.0001 30.5587 15.684 31.1213 15.1214C31.6839 14.5588 32 13.7958 32 13.0001V12.0001H42V26.0001C42 26.2653 42.1054 26.5197 42.2929 26.7072C42.4804 26.8948 42.7348 27.0001 43 27.0001C43.2652 27.0001 43.5196 26.8948 43.7071 26.7072C43.8946 26.5197 44 26.2653 44 26.0001V11.0001C44 10.7349 43.8946 10.4805 43.7071 10.293C43.5196 10.1055 43.2652 10.0001 43 10.0001H35V7.00013C35 6.73491 34.8946 6.48056 34.7071 6.29302C34.5196 6.10548 34.2652 6.00013 34 6.00013H27.9C27.6705 4.86984 27.0573 3.85365 26.1643 3.12375C25.2712 2.39385 24.1534 1.99512 23 1.99512C21.8466 1.99512 20.7288 2.39385 19.8357 3.12375C18.9427 3.85365 18.3295 4.86984 18.1 6.00013H12C11.7348 6.00013 11.4804 6.10548 11.2929 6.29302C11.1054 6.48056 11 6.73491 11 7.00013V10.0001H3C2.73478 10.0001 2.48043 10.1055 2.29289 10.293C2.10536 10.4805 2 10.7349 2 11.0001V61.0001C2 61.2653 2.10536 61.5197 2.29289 61.7072C2.48043 61.8948 2.73478 62.0001 3 62.0001H26C26.2652 62.0001 26.5196 61.8948 26.7071 61.7072C26.8946 61.5197 27 61.2653 27 61.0001C27 60.7349 26.8946 60.4805 26.7071 60.293C26.5196 60.1055 26.2652 60.0001 26 60.0001ZM30 13.0001C30 13.2653 29.8946 13.5197 29.7071 13.7072C29.5196 13.8948 29.2652 14.0001 29 14.0001H17C16.7348 14.0001 16.4804 13.8948 16.2929 13.7072C16.1054 13.5197 16 13.2653 16 13.0001V12.0001H30V13.0001ZM23 4.00013C23.6207 3.9998 24.2261 4.19198 24.733 4.55018C25.2398 4.90838 25.6231 5.41497 25.83 6.00013H20.17C20.3769 5.41497 20.7602 4.90838 21.267 4.55018C21.7739 4.19198 22.3793 3.9998 23 4.00013ZM13 8.00013H33V10.0001H13V8.00013Z" fill="#39519D"/>
<path d="M15 21C15 20.7348 14.8946 20.4804 14.7071 20.2929C14.5196 20.1054 14.2652 20 14 20H8C7.73478 20 7.48043 20.1054 7.29289 20.2929C7.10536 20.4804 7 20.7348 7 21V27C7 27.2652 7.10536 27.5196 7.29289 27.7071C7.48043 27.8946 7.73478 28 8 28H14C14.2652 28 14.5196 27.8946 14.7071 27.7071C14.8946 27.5196 15 27.2652 15 27V21ZM13 26H9V22H13V26Z" fill="#39519D"/>
<path d="M19 26C18.7348 26 18.4804 26.1054 18.2929 26.2929C18.1054 26.4804 18 26.7348 18 27C18 27.2652 18.1054 27.5196 18.2929 27.7071C18.4804 27.8946 18.7348 28 19 28H36C36.2652 28 36.5196 27.8946 36.7071 27.7071C36.8946 27.5196 37 27.2652 37 27C37 26.7348 36.8946 26.4804 36.7071 26.2929C36.5196 26.1054 36.2652 26 36 26H19Z" fill="#39519D"/>
<path d="M15 32C15 31.7348 14.8946 31.4804 14.7071 31.2929C14.5196 31.1054 14.2652 31 14 31H8C7.73478 31 7.48043 31.1054 7.29289 31.2929C7.10536 31.4804 7 31.7348 7 32V38C7 38.2652 7.10536 38.5196 7.29289 38.7071C7.48043 38.8946 7.73478 39 8 39H14C14.2652 39 14.5196 38.8946 14.7071 38.7071C14.8946 38.5196 15 38.2652 15 38V32ZM13 37H9V33H13V37Z" fill="#39519D"/>
<path d="M26 37H19C18.7348 37 18.4804 37.1054 18.2929 37.2929C18.1054 37.4804 18 37.7348 18 38C18 38.2652 18.1054 38.5196 18.2929 38.7071C18.4804 38.8946 18.7348 39 19 39H26C26.2652 39 26.5196 38.8946 26.7071 38.7071C26.8946 38.5196 27 38.2652 27 38C27 37.7348 26.8946 37.4804 26.7071 37.2929C26.5196 37.1054 26.2652 37 26 37Z" fill="#39519D"/>
<path d="M14 45C14.2652 45 14.5196 44.8946 14.7071 44.7071C14.8946 44.5196 15 44.2652 15 44C15 43.7348 14.8946 43.4804 14.7071 43.2929C14.5196 43.1054 14.2652 43 14 43H8C7.73478 43 7.48043 43.1054 7.29289 43.2929C7.10536 43.4804 7 43.7348 7 44V50C7 50.2652 7.10536 50.5196 7.29289 50.7071C7.48043 50.8946 7.73478 51 8 51H14C14.2652 51 14.5196 50.8946 14.7071 50.7071C14.8946 50.5196 15 50.2652 15 50C15 49.7348 14.8946 49.4804 14.7071 49.2929C14.5196 49.1054 14.2652 49 14 49H9V45H14Z" fill="#39519D"/>
<path d="M26 49H19C18.7348 49 18.4804 49.1054 18.2929 49.2929C18.1054 49.4804 18 49.7348 18 50C18 50.2652 18.1054 50.5196 18.2929 50.7071C18.4804 50.8946 18.7348 51 19 51H26C26.2652 51 26.5196 50.8946 26.7071 50.7071C26.8946 50.5196 27 50.2652 27 50C27 49.7348 26.8946 49.4804 26.7071 49.2929C26.5196 49.1054 26.2652 49 26 49Z" fill="#39519D"/>
</svg>
