<svg width="69" height="64" viewBox="0 0 69 64" fill="none" xmlns="http://www.w3.org/2000/svg">
<path fill-rule="evenodd" clip-rule="evenodd" d="M43.6 64H4.8C2.26667 64 0 61.8667 0 59.0667V4.8C0 2.13333 2.13333 0 4.8 0H43.6C46.2667 0 48.4 2.13333 48.4 4.8V32.1333C51.4667 28.9333 55.0667 25.3333 58.1333 22.4C59.6 20.9333 60.5333 19.6 63.0667 19.6C67.2 19.6 70.2667 24.8 66.6667 28.4L65.4667 29.7333L48.4 46.8V59.0667C48.4 61.8667 46.2667 64 43.6 64ZM42.2667 56.6667H6.13333C4.93333 56.6667 4.93333 54.8 6.13333 54.8H31.0667C31.3333 53.8667 33.3333 47.2 33.7333 46.8C34.8 45.4667 46.4 34.1333 46.5333 34V4.8C46.5333 3.06667 45.2 1.86667 43.6 1.86667H4.8C3.2 1.86667 1.86667 3.06667 1.86667 4.8V59.0667C1.86667 60.8 3.2 62.1333 4.8 62.1333H43.6C45.2 62.1333 46.5333 60.8 46.5333 59.0667V48.6667L40.9333 54.2667C40.6667 54.5333 39.3333 54.8 38.9333 54.8H42.2667C43.4667 54.8 43.4667 56.6667 42.2667 56.6667ZM24.1333 47.2H6.13333C4.93333 47.2 4.93333 45.3333 6.13333 45.3333H24.1333C25.3333 45.3333 25.3333 47.2 24.1333 47.2ZM35.2 37.6H6.13333C4.93333 37.6 4.93333 35.7333 6.13333 35.7333H35.2C36.4 35.7333 36.4 37.6 35.2 37.6ZM42.2667 28.1333H6.13333C4.93333 28.1333 4.93333 26.1333 6.13333 26.1333H42.2667C43.4667 26.1333 43.4667 28.1333 42.2667 28.1333ZM42.2667 18.6667H6.13333C4.93333 18.6667 4.93333 16.8 6.13333 16.8H42.2667C43.4667 16.8 43.4667 18.6667 42.2667 18.6667ZM42.2667 9.06667H6.13333C4.93333 9.06667 4.93333 7.06667 6.13333 7.06667H42.2667C43.4667 7.06667 43.4667 9.06667 42.2667 9.06667ZM58.8 24.2667L35.7333 47.4667L40.4 52.2667L63.6 29.0667L58.8 24.2667ZM60.1333 22.9333L64.9333 27.6C65.7333 26.8 66.4 26.1333 66.4 24.8C66.4 22.1333 62.9333 20.1333 60.6667 22.4L60.1333 22.9333ZM34.8 49.2L33.2 54.4L38.6667 53.0667L34.8 49.2Z" fill="#4D4D4D"/>
<path fill-rule="evenodd" clip-rule="evenodd" d="M6.13385 26.1334H42.2672C43.4672 26.1334 43.4672 28.1334 42.2672 28.1334H6.13385C4.93385 28.1334 4.93385 26.1334 6.13385 26.1334ZM6.13385 35.7334H35.2005C36.4005 35.7334 36.4005 37.6 35.2005 37.6H6.13385C4.93385 37.6 4.93385 35.7334 6.13385 35.7334ZM6.13385 54.8H31.0672C31.3339 53.8667 33.3339 47.2 33.7339 46.8C34.8005 45.4667 46.4005 34.1334 46.5339 34V4.80003C46.5339 3.0667 45.2005 1.8667 43.6005 1.8667H4.80052C3.20052 1.8667 1.86719 3.0667 1.86719 4.80003V59.0667C1.86719 60.8 3.20052 62.1334 4.80052 62.1334H43.6005C45.2005 62.1334 46.5339 60.8 46.5339 59.0667V48.6667L40.9339 54.2667C40.6672 54.5334 39.3339 54.8 38.9339 54.8H42.2672C43.4672 54.8 43.4672 56.6667 42.2672 56.6667H6.13385C4.93385 56.6667 4.93385 54.8 6.13385 54.8ZM6.13385 45.3334H24.1339C25.3339 45.3334 25.3339 47.2 24.1339 47.2H6.13385C4.93385 47.2 4.93385 45.3334 6.13385 45.3334ZM42.2672 18.6667H6.13385C4.93385 18.6667 4.93385 16.8 6.13385 16.8H42.2672C43.4672 16.8 43.4672 18.6667 42.2672 18.6667ZM42.2672 9.0667H6.13385C4.93385 9.0667 4.93385 7.0667 6.13385 7.0667H42.2672C43.4672 7.0667 43.4672 9.0667 42.2672 9.0667Z" fill="#D9F2F2"/>
<path fill-rule="evenodd" clip-rule="evenodd" d="M58.7991 24.2666L35.7324 47.4666L40.3991 52.2666L63.5991 29.0666L58.7991 24.2666Z" fill="#F3A766"/>
<path fill-rule="evenodd" clip-rule="evenodd" d="M38.6659 53.0669L34.7992 49.2002L33.1992 54.4002L38.6659 53.0669Z" fill="#99A4AC"/>
<path fill-rule="evenodd" clip-rule="evenodd" d="M60.1328 22.9333L64.9328 27.6C65.7328 26.8 66.3995 26.1333 66.3995 24.8C66.3995 22.1333 62.9328 20.1333 60.6661 22.4L60.1328 22.9333Z" fill="#99A4AC"/>
</svg>
