<svg width="64" height="64" viewBox="0 0 64 64" fill="none" xmlns="http://www.w3.org/2000/svg">
<path d="M39 6V10" stroke="#B3B3B3" stroke-width="2" stroke-miterlimit="10" stroke-linecap="round"/>
<path d="M25 6V10" stroke="#B3B3B3" stroke-width="2" stroke-miterlimit="10" stroke-linecap="round"/>
<path d="M30 3H34C34.2652 3 34.5196 3.10536 34.7071 3.29289C34.8946 3.48043 35 3.73478 35 4V10H29V4C29 3.73478 29.1054 3.48043 29.2929 3.29289C29.4804 3.10536 29.7348 3 30 3Z" fill="#C1272D"/>
<path d="M18 35V17C18 16.7348 18.1054 16.4804 18.2929 16.2929C18.4804 16.1054 18.7348 16 19 16H45C45.2652 16 45.5196 16.1054 45.7071 16.2929C45.8946 16.4804 46 16.7348 46 17V35H18Z" fill="#CCCCCC"/>
<path d="M14.5796 56.0003L12.0496 38.3403C12.036 38.2401 12.0525 38.1381 12.097 38.0473C12.1416 37.9565 12.2121 37.881 12.2996 37.8303L31.7596 27.1303C31.8335 27.091 31.9159 27.0703 31.9996 27.0703C32.0833 27.0703 32.1657 27.091 32.2396 27.1303L51.6996 37.8303C51.7872 37.881 51.8577 37.9565 51.9022 38.0473C51.9467 38.1381 51.9632 38.2401 51.9496 38.3403L49.4196 56.0003L48.9996 58.0003H14.9996L14.5796 56.0003Z" fill="#565656"/>
<path d="M23 10H41C41.2652 10 41.5196 10.1054 41.7071 10.2929C41.8946 10.4804 42 10.7348 42 11V16H22V11C22 10.7348 22.1054 10.4804 22.2929 10.2929C22.4804 10.1054 22.7348 10 23 10Z" fill="#F7E96B"/>
<path d="M51 44.0003L32.25 33.1503C32.174 33.1065 32.0878 33.0834 32 33.0834C31.9122 33.0834 31.826 33.1065 31.75 33.1503L13 44.0003L12.06 38.3503C12.0397 38.2483 12.0531 38.1424 12.0982 38.0486C12.1432 37.9548 12.2176 37.8782 12.31 37.8303L31.76 27.1303C31.8339 27.091 31.9163 27.0703 32 27.0703C32.0837 27.0703 32.1661 27.091 32.24 27.1303L51.69 37.8303C51.7824 37.8782 51.8568 37.9548 51.9019 38.0486C51.9469 38.1424 51.9603 38.2483 51.94 38.3503L51 44.0003Z" fill="#F7E96B"/>
<path d="M32 54V40" stroke="#CCCCCC" stroke-width="2" stroke-miterlimit="10" stroke-linecap="round"/>
<path d="M25 13H27" stroke="#F7931E" stroke-width="2" stroke-miterlimit="10"/>
<path d="M37 13H39" stroke="#F7931E" stroke-width="2" stroke-miterlimit="10"/>
<path d="M31 13H33" stroke="#F7931E" stroke-width="2" stroke-miterlimit="10"/>
<path d="M33.5 20H30.5C30.2239 20 30 20.2239 30 20.5V22.5C30 22.7761 30.2239 23 30.5 23H33.5C33.7761 23 34 22.7761 34 22.5V20.5C34 20.2239 33.7761 20 33.5 20Z" fill="#60CEF4"/>
<path d="M25.5 20H22.5C22.2239 20 22 20.2239 22 20.5V22.5C22 22.7761 22.2239 23 22.5 23H25.5C25.7761 23 26 22.7761 26 22.5V20.5C26 20.2239 25.7761 20 25.5 20Z" fill="#60CEF4"/>
<path d="M41.5 20H38.5C38.2239 20 38 20.2239 38 20.5V22.5C38 22.7761 38.2239 23 38.5 23H41.5C41.7761 23 42 22.7761 42 22.5V20.5C42 20.2239 41.7761 20 41.5 20Z" fill="#60CEF4"/>
<path d="M61 57.0003L58.83 54.8303C58.4585 54.4584 58.0174 54.1634 57.5318 53.9621C57.0462 53.7608 56.5257 53.6572 56 53.6572C55.4743 53.6572 54.9538 53.7608 54.4682 53.9621C53.9826 54.1634 53.5415 54.4584 53.17 54.8303L52.83 55.1803C52.4585 55.5522 52.0174 55.8473 51.5318 56.0485C51.0462 56.2498 50.5257 56.3535 50 56.3535C49.4743 56.3535 48.9538 56.2498 48.4682 56.0485C47.9826 55.8473 47.5415 55.5522 47.17 55.1803L46.83 54.8303C46.4585 54.4584 46.0174 54.1634 45.5318 53.9621C45.0462 53.7608 44.5257 53.6572 44 53.6572C43.4743 53.6572 42.9538 53.7608 42.4682 53.9621C41.9826 54.1634 41.5415 54.4584 41.17 54.8303L40.83 55.1803C40.4585 55.5522 40.0174 55.8473 39.5318 56.0485C39.0462 56.2498 38.5257 56.3535 38 56.3535C37.4743 56.3535 36.9538 56.2498 36.4682 56.0485C35.9826 55.8473 35.5415 55.5522 35.17 55.1803L34.83 54.8303C34.4585 54.4584 34.0174 54.1634 33.5318 53.9621C33.0462 53.7608 32.5257 53.6572 32 53.6572C31.4743 53.6572 30.9538 53.7608 30.4682 53.9621C29.9826 54.1634 29.5415 54.4584 29.17 54.8303L28.83 55.1803C28.4585 55.5522 28.0174 55.8473 27.5318 56.0485C27.0462 56.2498 26.5257 56.3535 26 56.3535C25.4743 56.3535 24.9538 56.2498 24.4682 56.0485C23.9826 55.8473 23.5415 55.5522 23.17 55.1803L22.83 54.8303C22.4585 54.4584 22.0174 54.1634 21.5318 53.9621C21.0462 53.7608 20.5257 53.6572 20 53.6572C19.4743 53.6572 18.9538 53.7608 18.4682 53.9621C17.9826 54.1634 17.5415 54.4584 17.17 54.8303L16.83 55.1803C16.4585 55.5522 16.0174 55.8473 15.5318 56.0485C15.0462 56.2498 14.5257 56.3535 14 56.3535C13.4743 56.3535 12.9538 56.2498 12.4682 56.0485C11.9826 55.8473 11.5415 55.5522 11.17 55.1803L10.83 54.8303C10.4585 54.4584 10.0174 54.1634 9.53176 53.9621C9.04617 53.7608 8.52566 53.6572 8 53.6572C7.47434 53.6572 6.95383 53.7608 6.46824 53.9621C5.98265 54.1634 5.54149 54.4584 5.17 54.8303L3 57.0003V61.0003H61V57.0003Z" fill="#29ABE2"/>
<path d="M59.5408 54.09C59.0763 53.6244 58.5246 53.2549 57.9171 53.0029C57.3097 52.7508 56.6585 52.6211 56.0008 52.6211C55.3431 52.6211 54.6919 52.7508 54.0845 53.0029C53.477 53.2549 52.9253 53.6244 52.4608 54.09L52.1208 54.43C51.6896 54.8538 51.1376 55.1333 50.5408 55.23L52.9408 38.49C52.975 38.1944 52.9212 37.8953 52.786 37.6302C52.6507 37.3651 52.4402 37.1458 52.1808 37L47.0008 34.11V17C47.0008 16.4696 46.7901 15.9609 46.415 15.5858C46.0399 15.2107 45.5312 15 45.0008 15H43.0008V11C43.0008 10.4696 42.7901 9.96086 42.415 9.58579C42.0399 9.21071 41.5312 9 41.0008 9H40.0008V6C40.0008 5.73478 39.8954 5.48043 39.7079 5.29289C39.5204 5.10536 39.266 5 39.0008 5C38.7356 5 38.4812 5.10536 38.2937 5.29289C38.1062 5.48043 38.0008 5.73478 38.0008 6V9H36.0008V4C36.0008 3.46957 35.7901 2.96086 35.415 2.58579C35.0399 2.21071 34.5312 2 34.0008 2H30.0008C29.4704 2 28.9617 2.21071 28.5866 2.58579C28.2115 2.96086 28.0008 3.46957 28.0008 4V9H26.0008V6C26.0008 5.73478 25.8954 5.48043 25.7079 5.29289C25.5204 5.10536 25.266 5 25.0008 5C24.7356 5 24.4812 5.10536 24.2937 5.29289C24.1062 5.48043 24.0008 5.73478 24.0008 6V9H23.0008C22.4704 9 21.9617 9.21071 21.5866 9.58579C21.2115 9.96086 21.0008 10.4696 21.0008 11V15H19.0008C18.4704 15 17.9617 15.2107 17.5866 15.5858C17.2115 15.9609 17.0008 16.4696 17.0008 17V34.11L11.8308 37C11.5653 37.1468 11.3505 37.3706 11.2148 37.642C11.0791 37.9134 11.0289 38.2195 11.0708 38.52L13.4708 55.27C12.874 55.1733 12.3219 54.8938 11.8908 54.47L11.5508 54.13C11.0863 53.6644 10.5346 53.2949 9.92713 53.0429C9.31967 52.7908 8.66846 52.6611 8.01079 52.6611C7.35312 52.6611 6.7019 52.7908 6.09445 53.0429C5.487 53.2949 4.93525 53.6644 4.47079 54.13L2.29079 56.26C2.10454 56.4474 2 56.7008 2 56.965C2 57.2292 2.10454 57.4826 2.29079 57.67C2.38375 57.7637 2.49435 57.8381 2.61621 57.8889C2.73807 57.9397 2.86878 57.9658 3.00079 57.9658C3.1328 57.9658 3.26351 57.9397 3.38537 57.8889C3.50723 57.8381 3.61783 57.7637 3.71079 57.67L5.88079 55.5C6.44329 54.9382 7.20579 54.6226 8.00079 54.6226C8.79579 54.6226 9.55829 54.9382 10.1208 55.5L10.4608 55.84C10.9253 56.3056 11.477 56.6751 12.0845 56.9271C12.6919 57.1792 13.3431 57.3089 14.0008 57.3089C14.6585 57.3089 15.3097 57.1792 15.9171 56.9271C16.5246 56.6751 17.0763 56.3056 17.5408 55.84L17.8808 55.5C18.4433 54.9382 19.2058 54.6226 20.0008 54.6226C20.7958 54.6226 21.5583 54.9382 22.1208 55.5L22.4608 55.84C22.9253 56.3056 23.477 56.6751 24.0845 56.9271C24.6919 57.1792 25.3431 57.3089 26.0008 57.3089C26.6585 57.3089 27.3097 57.1792 27.9171 56.9271C28.5246 56.6751 29.0763 56.3056 29.5408 55.84L29.8808 55.5C30.4433 54.9382 31.2058 54.6226 32.0008 54.6226C32.7958 54.6226 33.5583 54.9382 34.1208 55.5L34.4608 55.84C34.9253 56.3056 35.477 56.6751 36.0845 56.9271C36.6919 57.1792 37.3431 57.3089 38.0008 57.3089C38.6585 57.3089 39.3097 57.1792 39.9171 56.9271C40.5246 56.6751 41.0763 56.3056 41.5408 55.84L41.8808 55.5C42.4433 54.9382 43.2058 54.6226 44.0008 54.6226C44.7958 54.6226 45.5583 54.9382 46.1208 55.5L46.4608 55.84C46.9253 56.3056 47.477 56.6751 48.0845 56.9271C48.6919 57.1792 49.3431 57.3089 50.0008 57.3089C50.6585 57.3089 51.3097 57.1792 51.9171 56.9271C52.5246 56.6751 53.0763 56.3056 53.5408 55.84L53.8808 55.5C54.4433 54.9382 55.2058 54.6226 56.0008 54.6226C56.7958 54.6226 57.5583 54.9382 58.1208 55.5L60.2908 57.67C60.3838 57.7637 60.4944 57.8381 60.6162 57.8889C60.7381 57.9397 60.8688 57.9658 61.0008 57.9658C61.1328 57.9658 61.2635 57.9397 61.3854 57.8889C61.5072 57.8381 61.6178 57.7637 61.7108 57.67C61.8971 57.4826 62.0016 57.2292 62.0016 56.965C62.0016 56.7008 61.8971 56.4474 61.7108 56.26L59.5408 54.09ZM13.1008 38.54L32.0008 28.14L50.9008 38.54L50.2508 42.41L32.7508 32.28C32.524 32.1455 32.2645 32.0762 32.0008 32.08C31.7378 32.0811 31.4795 32.15 31.2508 32.28L13.7508 42.41L13.1008 38.54ZM30.0008 4H34.0008V9H30.0008V4ZM23.0008 11H41.0008V15H23.0008V11ZM19.0008 17H45.0008V33L32.7208 26.26C32.5006 26.1374 32.2528 26.0731 32.0008 26.0731C31.7488 26.0731 31.501 26.1374 31.2808 26.26L19.0008 33V17ZM47.5408 54.09C47.0763 53.6244 46.5246 53.2549 45.9171 53.0029C45.3097 52.7508 44.6585 52.6211 44.0008 52.6211C43.3431 52.6211 42.6919 52.7508 42.0845 53.0029C41.477 53.2549 40.9253 53.6244 40.4608 54.09L40.1208 54.43C39.5583 54.9918 38.7958 55.3074 38.0008 55.3074C37.2058 55.3074 36.4433 54.9918 35.8808 54.43L35.5408 54.09C34.8459 53.3973 33.9626 52.9243 33.0008 52.73V40C33.0008 39.7348 32.8954 39.4804 32.7079 39.2929C32.5204 39.1054 32.266 39 32.0008 39C31.7356 39 31.4812 39.1054 31.2937 39.2929C31.1062 39.4804 31.0008 39.7348 31.0008 40V52.73C30.039 52.9243 29.1557 53.3973 28.4608 54.09L28.1208 54.43C27.5583 54.9918 26.7958 55.3074 26.0008 55.3074C25.2058 55.3074 24.4433 54.9918 23.8808 54.43L23.5408 54.09C23.0763 53.6244 22.5246 53.2549 21.9171 53.0029C21.3097 52.7508 20.6585 52.6211 20.0008 52.6211C19.3431 52.6211 18.6919 52.7508 18.0845 53.0029C17.477 53.2549 16.9253 53.6244 16.4608 54.09L16.1208 54.43C15.9187 54.625 15.6897 54.79 15.4408 54.92L14.0008 44.6L32.0008 34.16L50.0008 44.6L48.5608 54.92C48.314 54.7866 48.0854 54.6219 47.8808 54.43L47.5408 54.09Z" fill="black"/>
<path d="M27 12H25V14H27V12Z" fill="black"/>
<path d="M39 12H37V14H39V12Z" fill="black"/>
<path d="M33 12H31V14H33V12Z" fill="black"/>
<path d="M35 22.5V20.5C35 20.1022 34.842 19.7206 34.5607 19.4393C34.2794 19.158 33.8978 19 33.5 19H30.5C30.1022 19 29.7206 19.158 29.4393 19.4393C29.158 19.7206 29 20.1022 29 20.5V22.5C29 22.8978 29.158 23.2794 29.4393 23.5607C29.7206 23.842 30.1022 24 30.5 24H33.5C33.8978 24 34.2794 23.842 34.5607 23.5607C34.842 23.2794 35 22.8978 35 22.5ZM33 22H31V21H33V22Z" fill="black"/>
<path d="M25.5 19H22.5C22.1022 19 21.7206 19.158 21.4393 19.4393C21.158 19.7206 21 20.1022 21 20.5V22.5C21 22.8978 21.158 23.2794 21.4393 23.5607C21.7206 23.842 22.1022 24 22.5 24H25.5C25.8978 24 26.2794 23.842 26.5607 23.5607C26.842 23.2794 27 22.8978 27 22.5V20.5C27 20.1022 26.842 19.7206 26.5607 19.4393C26.2794 19.158 25.8978 19 25.5 19ZM25 22H23V21H25V22Z" fill="black"/>
<path d="M38.5 24H41.5C41.8978 24 42.2794 23.842 42.5607 23.5607C42.842 23.2794 43 22.8978 43 22.5V20.5C43 20.1022 42.842 19.7206 42.5607 19.4393C42.2794 19.158 41.8978 19 41.5 19H38.5C38.1022 19 37.7206 19.158 37.4393 19.4393C37.158 19.7206 37 20.1022 37 20.5V22.5C37 22.8978 37.158 23.2794 37.4393 23.5607C37.7206 23.842 38.1022 24 38.5 24ZM39 21H41V22H39V21Z" fill="black"/>
</svg>
