<svg width="64" height="64" viewBox="0 0 64 64" fill="none" xmlns="http://www.w3.org/2000/svg">
<path d="M3 40H61V44C61 46.1217 60.1571 48.1566 58.6569 49.6569C57.1566 51.1571 55.1217 52 53 52H11C8.87827 52 6.84344 51.1571 5.34315 49.6569C3.84285 48.1566 3 46.1217 3 44V40Z" fill="#4891D3"/>
<path d="M13.9998 46H60.7398C60.908 45.3465 60.9954 44.6748 60.9998 44V40H6.25977C6.70291 41.7163 7.70348 43.2368 9.1044 44.3227C10.5054 45.4087 12.2273 45.9987 13.9998 46Z" fill="#57B7EB"/>
<path d="M19 34H3V40H19V34Z" fill="#4891D3"/>
<path d="M57 16H43V30H57V16Z" fill="#A1D51C"/>
<path d="M45 16H57V28C53.8174 28 50.7652 26.7357 48.5147 24.4853C46.2643 22.2348 45 19.1826 45 16Z" fill="#C4F236"/>
<path d="M61 30H53V40H61V30Z" fill="#FCBC04"/>
<path d="M53 30H39V40H53V30Z" fill="#F9E109"/>
<path d="M50 10H46V16H50V10Z" fill="#4891D3"/>
<path d="M49 30H43V34H49V30Z" fill="#E59730"/>
<path d="M35 34H29V40H35V34Z" fill="#FCBC04"/>
<path d="M29 34H23V40H29V34Z" fill="#A1D51C"/>
<path d="M35 28H29V34H35V28Z" fill="#A1D51C"/>
<path d="M29 28H23V34H29V28Z" fill="#4891D3"/>
<path d="M23 28H17V34H23V28Z" fill="#A1D51C"/>
<path d="M17 28H11V34H17V28Z" fill="#FCBC04"/>
<path d="M35 22H29V28H35V22Z" fill="#FCBC04"/>
<path d="M29 22H23V28H29V22Z" fill="#4891D3"/>
<path d="M23 22H17V28H23V22Z" fill="#FCBC04"/>
<path d="M17 22H11V28H17V22Z" fill="#4891D3"/>
<path d="M23 34H19V40H23V34Z" fill="#FCBC04"/>
<path d="M29 16H23V22H29V16Z" fill="#FCBC04"/>
<path d="M23 16H17V22H23V16Z" fill="#A1D51C"/>
<path d="M25 16H29V20H27C26.4696 20 25.9609 19.7893 25.5858 19.4142C25.2107 19.0391 25 18.5304 25 18V16Z" fill="#F9E109"/>
<path d="M19 22H23V26H21C20.4696 26 19.9609 25.7893 19.5858 25.4142C19.2107 25.0391 19 24.5304 19 24V22Z" fill="#F9E109"/>
<path d="M31 22H35V26H33C32.4696 26 31.9609 25.7893 31.5858 25.4142C31.2107 25.0391 31 24.5304 31 24V22Z" fill="#F9E109"/>
<path d="M13 28H17V32H15C14.4696 32 13.9609 31.7893 13.5858 31.4142C13.2107 31.0391 13 30.5304 13 30V28Z" fill="#F9E109"/>
<path d="M31 34H35V38H33C32.4696 38 31.9609 37.7893 31.5858 37.4142C31.2107 37.0391 31 36.5304 31 36V34Z" fill="#F9E109"/>
<path d="M19 16H23V20H21C20.4696 20 19.9609 19.7893 19.5858 19.4142C19.2107 19.0391 19 18.5304 19 18V16Z" fill="#C4F236"/>
<path d="M19 28H23V32H21C20.4696 32 19.9609 31.7893 19.5858 31.4142C19.2107 31.0391 19 30.5304 19 30V28Z" fill="#C4F236"/>
<path d="M31 28H35V32H33C32.4696 32 31.9609 31.7893 31.5858 31.4142C31.2107 31.0391 31 30.5304 31 30V28Z" fill="#C4F236"/>
<path d="M25 34H29V38H27C26.4696 38 25.9609 37.7893 25.5858 37.4142C25.2107 37.0391 25 36.5304 25 36V34Z" fill="#C4F236"/>
<path d="M25 22H29V26H27C26.4696 26 25.9609 25.7893 25.5858 25.4142C25.2107 25.0391 25 24.5304 25 24V22Z" fill="#57B7EB"/>
<path d="M25 28H29V32H27C26.4696 32 25.9609 31.7893 25.5858 31.4142C25.2107 31.0391 25 30.5304 25 30V28Z" fill="#57B7EB"/>
<path d="M13 22H17V26H15C14.4696 26 13.9609 25.7893 13.5858 25.4142C13.2107 25.0391 13 24.5304 13 24V22Z" fill="#57B7EB"/>
<path d="M21 34H23V38C22.4696 38 21.9609 37.7893 21.5858 37.4142C21.2107 37.0391 21 36.5304 21 36V34Z" fill="#F9E109"/>
<path d="M13 48C14.1046 48 15 47.1046 15 46C15 44.8954 14.1046 44 13 44C11.8954 44 11 44.8954 11 46C11 47.1046 11.8954 48 13 48Z" fill="#E59730"/>
<path d="M21 48C22.1046 48 23 47.1046 23 46C23 44.8954 22.1046 44 21 44C19.8954 44 19 44.8954 19 46C19 47.1046 19.8954 48 21 48Z" fill="#E59730"/>
<path d="M49 20H43V24H49V20Z" fill="#4891D3"/>
<path d="M57 20H53V24H57V20Z" fill="#4891D3"/>
<path d="M3 34H19V38H7C5.93913 38 4.92172 37.5786 4.17157 36.8284C3.42143 36.0783 3 35.0609 3 34Z" fill="#57B7EB"/>
<path d="M48 10H50V16C49.4696 16 48.9609 15.7893 48.5858 15.4142C48.2107 15.0391 48 14.5304 48 14V10Z" fill="#57B7EB"/>
<path d="M54 20H57V23C56.2044 23 55.4413 22.6839 54.8787 22.1213C54.3161 21.5587 54 20.7956 54 20Z" fill="#57B7EB"/>
<path d="M49 23H46C45.4696 23 44.9609 22.7893 44.5858 22.4142C44.2107 22.0391 44 21.5304 44 21V20H49V23Z" fill="#57B7EB"/>
<path d="M55 30H61V38H60C58.6739 38 57.4021 37.4732 56.4645 36.5355C55.5268 35.5979 55 34.3261 55 33V30Z" fill="#F9E109"/>
<path d="M42 31V30H39V40H53V37H48C46.4087 37 44.8826 36.3679 43.7574 35.2426C42.6321 34.1174 42 32.5913 42 31Z" fill="#FCBC04"/>
<path d="M61 36C61.2652 36 61.5196 35.8946 61.7071 35.7071C61.8946 35.5196 62 35.2652 62 35V30C62 29.7348 61.8946 29.4804 61.7071 29.2929C61.5196 29.1054 61.2652 29 61 29H58V16C58 15.7348 57.8946 15.4804 57.7071 15.2929C57.5196 15.1054 57.2652 15 57 15H51V10C51 9.73478 50.8946 9.48043 50.7071 9.29289C50.5196 9.10536 50.2652 9 50 9H49V6H55C55.2652 6 55.5196 5.89464 55.7071 5.70711C55.8946 5.51957 56 5.26522 56 5C56 4.73478 55.8946 4.48043 55.7071 4.29289C55.5196 4.10536 55.2652 4 55 4H49V3C49 2.73478 48.8946 2.48043 48.7071 2.29289C48.5196 2.10536 48.2652 2 48 2C47.7348 2 47.4804 2.10536 47.2929 2.29289C47.1054 2.48043 47 2.73478 47 3V4H27V3C27 2.73478 26.8946 2.48043 26.7071 2.29289C26.5196 2.10536 26.2652 2 26 2C25.7348 2 25.4804 2.10536 25.2929 2.29289C25.1054 2.48043 25 2.73478 25 3V4H24C23.7348 4 23.4804 4.10536 23.2929 4.29289C23.1054 4.48043 23 4.73478 23 5C23 5.26522 23.1054 5.51957 23.2929 5.70711C23.4804 5.89464 23.7348 6 24 6H25V8H24C23.2044 8 22.4413 8.31607 21.8787 8.87868C21.3161 9.44129 21 10.2044 21 11V12C21 12.2652 21.1054 12.5196 21.2929 12.7071C21.4804 12.8946 21.7348 13 22 13C22.2652 13 22.5196 12.8946 22.7071 12.7071C22.8946 12.5196 23 12.2652 23 12V11C23 10.7348 23.1054 10.4804 23.2929 10.2929C23.4804 10.1054 23.7348 10 24 10H28C28.2652 10 28.5196 10.1054 28.7071 10.2929C28.8946 10.4804 29 10.7348 29 11V12C29 12.2652 29.1054 12.5196 29.2929 12.7071C29.4804 12.8946 29.7348 13 30 13C30.2652 13 30.5196 12.8946 30.7071 12.7071C30.8946 12.5196 31 12.2652 31 12V11C31 10.2044 30.6839 9.44129 30.1213 8.87868C29.5587 8.31607 28.7956 8 28 8H27V6H47V9H46C45.7348 9 45.4804 9.10536 45.2929 9.29289C45.1054 9.48043 45 9.73478 45 10V15H43C42.7348 15 42.4804 15.1054 42.2929 15.2929C42.1054 15.4804 42 15.7348 42 16V29H39C38.7348 29 38.4804 29.1054 38.2929 29.2929C38.1054 29.4804 38 29.7348 38 30V39H36V22C36 21.7348 35.8946 21.4804 35.7071 21.2929C35.5196 21.1054 35.2652 21 35 21H33C32.7348 21 32.4804 21.1054 32.2929 21.2929C32.1054 21.4804 32 21.7348 32 22C32 22.2652 32.1054 22.5196 32.2929 22.7071C32.4804 22.8946 32.7348 23 33 23H34V27H30V16C30 15.7348 29.8946 15.4804 29.7071 15.2929C29.5196 15.1054 29.2652 15 29 15H17C16.7348 15 16.4804 15.1054 16.2929 15.2929C16.1054 15.4804 16 15.7348 16 16V21H11C10.7348 21 10.4804 21.1054 10.2929 21.2929C10.1054 21.4804 10 21.7348 10 22V33H3C2.73478 33 2.48043 33.1054 2.29289 33.2929C2.10536 33.4804 2 33.7348 2 34V44C2 46.3869 2.94821 48.6761 4.63604 50.364C6.32387 52.0518 8.61305 53 11 53H53C55.3869 53 57.6761 52.0518 59.364 50.364C61.0518 48.6761 62 46.3869 62 44C62 43.7348 61.8946 43.4804 61.7071 43.2929C61.5196 43.1054 61.2652 43 61 43C60.7348 43 60.4804 43.1054 60.2929 43.2929C60.1054 43.4804 60 43.7348 60 44C60 45.8565 59.2625 47.637 57.9497 48.9497C56.637 50.2625 54.8565 51 53 51H11C9.14348 51 7.36301 50.2625 6.05025 48.9497C4.7375 47.637 4 45.8565 4 44V41H61C61.2652 41 61.5196 40.8946 61.7071 40.7071C61.8946 40.5196 62 40.2652 62 40C62 39.7348 61.8946 39.4804 61.7071 39.2929C61.5196 39.1054 61.2652 39 61 39H54V31H60V35C60 35.2652 60.1054 35.5196 60.2929 35.7071C60.4804 35.8946 60.7348 36 61 36ZM47 11H49V15H47V11ZM44 21H48V23H44V21ZM34 29V33H24V29H28V30C28 30.2652 28.1054 30.5196 28.2929 30.7071C28.4804 30.8946 28.7348 31 29 31C29.2652 31 29.5196 30.8946 29.7071 30.7071C29.8946 30.5196 30 30.2652 30 30V29H34ZM22 23V27H18V23H22ZM28 27H24V23H28V27ZM18 33V29H22V33H18ZM28 21H24V17H28V21ZM18 17H22V21H18V17ZM12 23H16V27H12V23ZM12 29H16V33H12V29ZM4 35H18V39H4V35ZM20 35H22V39H20V35ZM24 35H28V39H24V35ZM30 39V35H34V39H30ZM40 31H42V34C42 34.2652 42.1054 34.5196 42.2929 34.7071C42.4804 34.8946 42.7348 35 43 35H49C49.2652 35 49.5196 34.8946 49.7071 34.7071C49.8946 34.5196 50 34.2652 50 34C50 33.7348 49.8946 33.4804 49.7071 33.2929C49.5196 33.1054 49.2652 33 49 33H44V31H52V39H40V31ZM44 29V25H49C49.2652 25 49.5196 24.8946 49.7071 24.7071C49.8946 24.5196 50 24.2652 50 24V20C50 19.7348 49.8946 19.4804 49.7071 19.2929C49.5196 19.1054 49.2652 19 49 19H44V17H56V19H53C52.7348 19 52.4804 19.1054 52.2929 19.2929C52.1054 19.4804 52 19.7348 52 20C52 20.2652 52.1054 20.5196 52.2929 20.7071C52.4804 20.8946 52.7348 21 53 21H56V23H53C52.7348 23 52.4804 23.1054 52.2929 23.2929C52.1054 23.4804 52 23.7348 52 24C52 24.2652 52.1054 24.5196 52.2929 24.7071C52.4804 24.8946 52.7348 25 53 25H56V29H44Z" fill="#39519D"/>
<path d="M10 46C10 46.5933 10.1759 47.1734 10.5056 47.6667C10.8352 48.1601 11.3038 48.5446 11.8519 48.7716C12.4001 48.9987 13.0033 49.0581 13.5853 48.9424C14.1672 48.8266 14.7018 48.5409 15.1213 48.1213C15.5409 47.7018 15.8266 47.1672 15.9424 46.5853C16.0581 46.0033 15.9987 45.4001 15.7716 44.852C15.5446 44.3038 15.1601 43.8352 14.6667 43.5056C14.1734 43.1759 13.5933 43 13 43C12.2044 43 11.4413 43.3161 10.8787 43.8787C10.3161 44.4413 10 45.2044 10 46ZM14 46C14 46.1978 13.9414 46.3911 13.8315 46.5556C13.7216 46.72 13.5654 46.8482 13.3827 46.9239C13.2 46.9996 12.9989 47.0194 12.8049 46.9808C12.6109 46.9422 12.4327 46.847 12.2929 46.7071C12.153 46.5673 12.0578 46.3891 12.0192 46.1951C11.9806 46.0011 12.0004 45.8 12.0761 45.6173C12.1518 45.4346 12.28 45.2784 12.4444 45.1685C12.6089 45.0586 12.8022 45 13 45C13.2652 45 13.5196 45.1054 13.7071 45.2929C13.8946 45.4804 14 45.7348 14 46Z" fill="#39519D"/>
<path d="M18 46C18 46.5933 18.1759 47.1734 18.5056 47.6667C18.8352 48.1601 19.3038 48.5446 19.8519 48.7716C20.4001 48.9987 21.0033 49.0581 21.5853 48.9424C22.1672 48.8266 22.7018 48.5409 23.1213 48.1213C23.5409 47.7018 23.8266 47.1672 23.9424 46.5853C24.0581 46.0033 23.9987 45.4001 23.7716 44.852C23.5446 44.3038 23.1601 43.8352 22.6667 43.5056C22.1734 43.1759 21.5933 43 21 43C20.2044 43 19.4413 43.3161 18.8787 43.8787C18.3161 44.4413 18 45.2044 18 46ZM22 46C22 46.1978 21.9414 46.3911 21.8315 46.5556C21.7216 46.72 21.5654 46.8482 21.3827 46.9239C21.2 46.9996 20.9989 47.0194 20.8049 46.9808C20.6109 46.9422 20.4327 46.847 20.2929 46.7071C20.153 46.5673 20.0578 46.3891 20.0192 46.1951C19.9806 46.0011 20.0004 45.8 20.0761 45.6173C20.1518 45.4346 20.28 45.2784 20.4444 45.1685C20.6089 45.0586 20.8022 45 21 45C21.2652 45 21.5196 45.1054 21.7071 45.2929C21.8946 45.4804 22 45.7348 22 46Z" fill="#39519D"/>
</svg>
